<svg xmlns="http://www.w3.org/2000/svg" viewBox="0 0 64 64">
  <defs>
    <linearGradient id="g" x1="0%" y1="0%" x2="100%" y2="100%">
      <stop offset="0%" stop-color="#3b82f6"/>
      <stop offset="100%" stop-color="#14b8a6"/>
    </linearGradient>
  </defs>
  <rect width="64" height="64" rx="14" fill="url(#g)"/>
  <path d="M32 12c-5 0-9 2-12 6-2 3-3 7-3 11 0 3 1 5 2 7 1 2 2 5 2 8 0 2-1 4-2 6 0 1 1 2 3 2 2 0 4-1 5-3 1-2 2-5 3-5s2 3 3 5c1 2 3 3 5 3 2 0 3-1 3-2-1-2-2-4-2-6 0-3 1-6 2-8 1-2 2-5 2-7 0-4-1-8-3-11-3-4-7-6-12-6z" fill="#fff" opacity="0.95"/>
</svg>
